<?xml version="1.0" encoding="iso-8859-1"?>
<!-- Generator: Adobe Illustrator 19.0.0, SVG Export Plug-In . SVG Version: 6.00 Build 0)  -->
<svg xmlns="http://www.w3.org/2000/svg" xmlns:xlink="http://www.w3.org/1999/xlink" version="1.1" id="Capa_1" x="0px" y="0px" viewBox="0 0 508.1 508.1" style="enable-background:new 0 0 508.1 508.1;" xml:space="preserve">
<g>
	<g>
		<path d="M450.6,65.55H426v-24.5c0-22.6-18.4-41-41-41c-22.6,0-41,18.4-41,41v24.6H163.9v-24.6c0-22.6-18.4-41-41-41    c-22.6,0-41,18.4-41,41v24.6H57.4C25.7,65.55,0,91.35,0,122.95v327.7c0,31.7,25.7,57.4,57.4,57.4h393.3    c31.6,0,57.4-25.7,57.4-57.4v-327.7C508,91.35,482.3,65.55,450.6,65.55z M360.5,41.05c0-13.6,11-24.6,24.6-24.6    c13.6,0,24.6,11,24.6,24.6v49.2c0,13.6-11,24.6-24.6,24.6c-13.6,0-24.6-11-24.6-24.6V41.05z M98.3,41.05c0-13.6,11-24.6,24.6-24.6    c13.6,0,24.6,11,24.6,24.6v49.2c0,13.6-11,24.6-24.6,24.6c-13.6,0-24.6-11-24.6-24.6V41.05z M491.6,450.75    c0,22.5-18.4,40.9-41,40.9H57.4c-22.6,0-41-18.4-41-41v-286.7h475.2V450.75z M491.9,147.55H16.4v-24.6c0-22.6,18.4-41,41-41H82    v8.2c0,22.6,18.4,41,41,41c22.6,0,41-18.4,41-41v-8.2h180.3v8.2c0,22.6,18.4,41,41,41c22.6,0,41-18.4,41-41v-8.2h24.6    c22.6,0,41,18.4,41,41V147.55z"/>
	</g>
</g>
<g>
	<g>
		<path d="M163.9,196.75v65.5h65.5v-65.5H163.9z M213,245.85h-32.8v-32.8h0.1H213V245.85z"/>
	</g>
</g>
<g>
	<g>
		<path d="M278.6,196.75v65.5h65.5v-65.5H278.6z M327.8,245.85H295v-32.8h32.8V245.85z"/>
	</g>
</g>
<g>
	<g>
		<path d="M393.3,196.75v65.5h65.5v-65.5H393.3z M442.5,245.85h-32.8v-32.8h32.8V245.85z"/>
	</g>
</g>
<g>
	<g>
		<path d="M49.2,295.05v65.5h65.5v-65.5H49.2z M98.3,344.25H65.5v-32.8h32.8V344.25z"/>
	</g>
</g>
<g>
	<g>
		<path d="M163.9,295.05v65.5h65.5v-65.5H163.9z M213,344.25h-32.8v-32.8h0.1H213V344.25z"/>
	</g>
</g>
<g>
	<g>
		<path d="M278.6,295.05v65.5h65.5v-65.5H278.6z M327.8,344.25H295v-32.8h32.8V344.25z"/>
	</g>
</g>
<g>
	<g>
		<path d="M393.3,295.05v65.5h65.5v-65.5H393.3z M442.5,344.25h-32.8v-32.8h32.8V344.25z"/>
	</g>
</g>
<g>
	<g>
		<path d="M49.2,393.35v65.5h65.5v-65.5H49.2z M98.3,442.55H65.5v-32.8h32.8V442.55z"/>
	</g>
</g>
<g>
	<g>
		<path d="M163.9,393.35v65.5h65.5v-65.5H163.9z M213,442.55h-32.8v-32.8h0.1H213V442.55z"/>
	</g>
</g>
<g>
	<g>
		<path d="M278.6,393.35v65.5h65.5v-65.5H278.6z M327.8,442.55H295v-32.8h32.8V442.55z"/>
	</g>
</g>
<g>
</g>
<g>
</g>
<g>
</g>
<g>
</g>
<g>
</g>
<g>
</g>
<g>
</g>
<g>
</g>
<g>
</g>
<g>
</g>
<g>
</g>
<g>
</g>
<g>
</g>
<g>
</g>
<g>
</g>
</svg>
