<?xml version="1.0" encoding="iso-8859-1"?>
<!-- Generator: Adobe Illustrator 19.0.0, SVG Export Plug-In . SVG Version: 6.00 Build 0)  -->
<svg xmlns="http://www.w3.org/2000/svg" xmlns:xlink="http://www.w3.org/1999/xlink" version="1.1" id="Capa_1" x="0px" y="0px" viewBox="0 0 508 508" style="enable-background:new 0 0 508 508;" xml:space="preserve">
<g>
	<g>
		<rect x="245.85" y="393.3" width="16.4" height="16.4"/>
	</g>
</g>
<g>
	<g>
		<rect x="245.85" y="426.1" width="16.4" height="16.4"/>
	</g>
</g>
<g>
	<g>
		<rect x="245.85" y="458.8" width="16.4" height="16.4"/>
	</g>
</g>
<g>
	<g>
		<path d="M425.65,163.8v0.1C421.35,72.8,346.15,0,254.05,0c-94.9,0-172.1,77.2-172.1,172.1c0,86.5,64.2,158.1,147.5,170.1v18.4    c-13.6,0-24.6,11-24.6,24.6V508h98.3V385.1c0-13.6-11-24.6-24.6-24.6v-18.4c80.6-11.6,143.1-79.1,147.1-161.9h0.4v-16.4H425.65z     M254.05,16.4c83.1,0,151,65.5,155.3,147.5h-24.6C380.45,95.4,323.55,41,254.05,41s-126.4,54.4-130.7,122.9h-24.6    C103.05,81.8,170.95,16.4,254.05,16.4z M332.55,163.9l-25.5,25.5l-36.5-118.7l-41,131.1l-30.1-97.8l-39.9,59.9h-19.8    c4.2-59.4,53.8-106.5,114.3-106.5s110.1,47.1,114.3,106.5H332.55z M368.35,180.3c-4.2,59.4-53.8,106.5-114.3,106.5    s-110.1-47.1-114.3-106.5h28.6l25.6-38.5l35.5,115.3l41-131.1l29,94.3l40-40H368.35z M278.75,376.9c4.4,0,8.1,3.7,8.1,8.2v106.5    h-65.5V385.1c0-4.5,3.7-8.2,8.2-8.2H278.75z M245.85,360.5v-16.6c1.4,0.1,2.8,0,4.2,0c1.3,0,2.6,0.2,3.9,0.2s2.6-0.2,3.9-0.2    c1.6,0,3,0.1,4.4,0v16.6H245.85z M270.25,326.9l-0.6,0.1c-1.7,0.2-3.5,0.2-5.3,0.3c-6.9,0.5-13.7,0.5-20.6,0    c-1.8-0.1-3.5-0.1-5.3-0.3l-0.6-0.1c-75.6-7.8-135.1-70-139.1-146.6h24.6c4.3,68.5,61.2,122.9,130.7,122.9s126.4-54.4,130.7-122.9    h24.6C405.25,256.9,345.75,319.1,270.25,326.9z"/>
	</g>
</g>
<g>
</g>
<g>
</g>
<g>
</g>
<g>
</g>
<g>
</g>
<g>
</g>
<g>
</g>
<g>
</g>
<g>
</g>
<g>
</g>
<g>
</g>
<g>
</g>
<g>
</g>
<g>
</g>
<g>
</g>
</svg>
