<?xml version="1.0" encoding="iso-8859-1"?>
<!-- Generator: Adobe Illustrator 19.0.0, SVG Export Plug-In . SVG Version: 6.00 Build 0)  -->
<svg xmlns="http://www.w3.org/2000/svg" xmlns:xlink="http://www.w3.org/1999/xlink" version="1.1" id="Capa_1" x="0px" y="0px" viewBox="0 0 508.1 508.1" style="enable-background:new 0 0 508.1 508.1;" xml:space="preserve">
<g>
	<g>
		<path d="M477.194,446l-182.1-265.3V49.2h8.2c13.6,0,24.6-11,24.6-24.6c0-13.6-11.1-24.6-24.6-24.6h-98.3    c-13.6,0-24.6,11-24.6,24.6c0,13.6,11,24.6,24.6,24.6h8.2v131.5L30.994,446c-7.7,12.8-7.9,28.3-0.5,41.3    c7.4,13,20.7,20.8,35.7,20.8h375.8c15,0,28.3-7.8,35.6-20.8C484.994,474.2,484.794,458.8,477.194,446z M213.094,32.8h-8.2    c-4.5,0-8.2-3.7-8.2-8.2s3.7-8.2,8.2-8.2h98.3c4.5,0,8.2,3.7,8.2,8.2s-3.7,8.2-8.2,8.2h-8.1H213.094z M463.394,479.1    c-4.4,7.8-12.4,12.5-21.4,12.5h-375.8c-9,0-17-4.7-21.4-12.5c-4.4-7.8-4.3-17.1,0-24.3l76-110.7h207v-16.4h-195.7l97.5-142v-21.9    h16.4v-16.4h-16.4v-24.6h16.4v-16.4h-16.4V81.9h16.4V65.5h-16.4V49.2h49.2v136.6l63.7,92.8h-121.2V295h132.3l109.6,159.6    C467.694,462.2,467.794,471.4,463.394,479.1z"/>
	</g>
</g>
<g>
	<g>
		<path d="M172.194,393.3c-22.6,0-41,18.4-41,41c0,22.6,18.4,41,41,41c22.6,0,41-18.4,41-41    C213.094,411.7,194.794,393.3,172.194,393.3z M172.194,458.8c-13.6,0-24.6-11-24.6-24.6c0-13.6,11-24.6,24.6-24.6    c13.6,0,24.6,11,24.6,24.6C196.794,447.8,185.694,458.8,172.194,458.8z"/>
	</g>
</g>
<g>
	<g>
		<path d="M237.694,360.5c-13.6,0-24.6,11-24.6,24.6c0,13.6,11,24.6,24.6,24.6c13.6,0,24.6-11,24.6-24.6    C262.294,371.5,251.294,360.5,237.694,360.5z M237.694,393.3c-4.5,0-8.2-3.7-8.2-8.2s3.7-8.2,8.2-8.2s8.2,3.7,8.2,8.2    S242.194,393.3,237.694,393.3z"/>
	</g>
</g>
<g>
</g>
<g>
</g>
<g>
</g>
<g>
</g>
<g>
</g>
<g>
</g>
<g>
</g>
<g>
</g>
<g>
</g>
<g>
</g>
<g>
</g>
<g>
</g>
<g>
</g>
<g>
</g>
<g>
</g>
</svg>
